<svg xmlns="http://www.w3.org/2000/svg" width="960" height="540" xmlns:v="https://vecta.io/nano"><path d="M0 383l22.8-3.3c22.9-3.4 68.5-10 114.2-4s91.3 24.6 137 36.3 91.3 16.3 137.2 10.8c45.8-5.5 91.8-21.1 137.6-24.8 45.9-3.7 91.5 4.7 137.2 6s91.3-4.3 137-11.7c45.7-7.3 91.3-16.3 114.2-20.8L960 367v174h-22.8H823 686 548.8 411.2 274 137 22.8 0z" fill="#a1b9fa"/><path d="M0 437l22.8 4.2c22.9 4.1 68.5 12.5 114.2 8.5s91.3-20.4 137-25.7 91.3.3 137.2 6c45.8 5.7 91.8 11.3 137.6 10.8 45.9-.5 91.5-7.1 137.2-13.6s91.3-12.9 137-13.9 91.3 3.4 114.2 5.5L960 421v120h-22.8H823 686 548.8 411.2 274 137 22.8 0z" fill="#7e9cef"/><path d="M0 472h22.8l114.2-1c45.7-1 91.3-3 137-.5s91.3 9.5 137.2 11.5c45.8 2 91.8-1 137.6-7.5 45.9-6.5 91.5-16.5 137.2-18.3 45.7-1.9 91.3 4.5 137 10.3l114.2 13.8L960 483v58h-22.8H823 686 548.8 411.2 274 137 22.8 0z" fill="#5980e3"/><path d="M0 477l22.8 1.3c22.9 1.4 68.5 4 114.2 8.5s91.3 10.9 137 13.7 91.3 2.2 137.2.3l137.6-6.8c45.9-2 91.5-3 137.2-.5s91.3 8.5 137 11.7c45.7 3.1 91.3 3.5 114.2 3.6l22.8.2v32h-22.8H823 686 548.8 411.2 274 137 22.8 0z" fill="#2b64d6"/></svg>